<svg width="128" height="128" viewBox="0 0 128 128" fill="none" xmlns="http://www.w3.org/2000/svg">
<rect width="128" height="128" rx="5" fill="white"/>
<path d="M52.3965 35.7568L52.8584 54.7373H51.1367C50.3249 49.9782 48.3232 46.1569 45.1318 43.2734C41.9684 40.362 38.5391 38.9062 34.8438 38.9062C31.9883 38.9062 29.7207 39.6761 28.041 41.2158C26.3893 42.7275 25.5635 44.4772 25.5635 46.4648C25.5635 47.7246 25.8574 48.8444 26.4453 49.8242C27.2572 51.14 28.5589 52.4417 30.3506 53.7295C31.6663 54.6533 34.7038 56.291 39.4629 58.6426C46.1257 61.918 50.6188 65.0114 52.9424 67.9229C55.238 70.8343 56.3857 74.1657 56.3857 77.917C56.3857 82.6761 54.5241 86.7773 50.8008 90.2207C47.1055 93.6361 42.4023 95.3438 36.6914 95.3438C34.8997 95.3438 33.2061 95.1618 31.6104 94.7979C30.0146 94.4339 28.013 93.748 25.6055 92.7402C24.2617 92.1803 23.1559 91.9004 22.2881 91.9004C21.5602 91.9004 20.7904 92.1803 19.9785 92.7402C19.1667 93.3001 18.5088 94.154 18.0049 95.3018H16.4512V73.8018H18.0049C19.2367 79.8486 21.6022 84.4678 25.1016 87.6592C28.6289 90.8226 32.4222 92.4043 36.4814 92.4043C39.6169 92.4043 42.1084 91.5505 43.9561 89.8428C45.8317 88.1351 46.7695 86.1475 46.7695 83.8799C46.7695 82.5361 46.4056 81.2344 45.6777 79.9746C44.9779 78.7148 43.9001 77.5251 42.4443 76.4053C40.9886 75.2575 38.4131 73.7738 34.7178 71.9541C29.5387 69.4066 25.8154 67.237 23.5479 65.4453C21.2803 63.6536 19.5306 61.652 18.2988 59.4404C17.0951 57.2288 16.4932 54.7933 16.4932 52.1338C16.4932 47.5986 18.1589 43.7354 21.4902 40.5439C24.8216 37.3525 29.0208 35.7568 34.0879 35.7568C35.9355 35.7568 37.7272 35.9808 39.4629 36.4287C40.7786 36.7646 42.3743 37.3945 44.25 38.3184C46.1536 39.2142 47.4834 39.6621 48.2393 39.6621C48.9671 39.6621 49.541 39.4382 49.9609 38.9902C50.3809 38.5423 50.7728 37.4645 51.1367 35.7568H52.3965Z" fill="black"/>
<rect x="69" y="10" width="49" height="108" rx="5" fill="#A8B8D8"/>
</svg>
